<svg width="24" height="24" viewBox="0 0 24 24" fill="none" xmlns="http://www.w3.org/2000/svg">
<path d="M13 5.9997L18 10.9997L8.493 20.5067C8.16402 20.1776 7.97821 19.732 7.97596 19.2667C7.97371 18.8013 8.15521 18.3539 8.481 18.0217L8.478 18.0187C8.15086 18.353 7.70431 18.5437 7.23659 18.5487C6.76888 18.5538 6.31831 18.3728 5.984 18.0457C5.64969 17.7186 5.45904 17.272 5.45398 16.8043C5.44891 16.3366 5.62986 15.886 5.957 15.5517L5.949 15.5437C5.61516 15.8575 5.17236 16.0292 4.71421 16.0225C4.25607 16.0158 3.8185 15.8312 3.494 15.5077L13 5.9997ZM20.586 5.5857L18.414 3.4137C18.0389 3.03876 17.5303 2.82812 17 2.82812C16.4697 2.82813 15.9611 3.03876 15.586 3.4137L14 4.9997L19 9.9997L20.586 8.4137C20.9609 8.03864 21.1716 7.53003 21.1716 6.9997C21.1716 6.46937 20.9609 5.96075 20.586 5.5857V5.5857ZM3 17.9997V20.9997H6C6 20.204 5.68393 19.441 5.12132 18.8784C4.55871 18.3158 3.79565 17.9997 3 17.9997Z" fill="#474747"/>
</svg>
