<svg width="20" height="20" viewBox="0 0 20 20" fill="none" xmlns="http://www.w3.org/2000/svg">
<path d="M5 1C4.46957 1 3.96086 1.21071 3.58579 1.58579C3.21071 1.96086 3 2.46957 3 3V4C3 9 5 12 10 12V9L15 13L10 17V14C6.82 14 4.49 13.15 3 11.32V17C3 17.5304 3.21071 18.0391 3.58579 18.4142C3.96086 18.7893 4.46957 19 5 19H15C15.5304 19 16.0391 18.7893 16.4142 18.4142C16.7893 18.0391 17 17.5304 17 17V3C17 2.46957 16.7893 1.96086 16.4142 1.58579C16.0391 1.21071 15.5304 1 15 1H5Z" fill="#474747"/>
</svg>
