<svg width="24" height="24" viewBox="0 0 24 24" fill="none" xmlns="http://www.w3.org/2000/svg">
<rect x="9.7998" y="9.2002" width="5.6" height="5.6" rx="2.8" stroke="#141736" stroke-width="1.5" stroke-linejoin="round"/>
<path fill-rule="evenodd" clip-rule="evenodd" d="M19.5901 8.44952L19.072 7.55048C18.6336 6.78975 17.6623 6.52731 16.9005 6.96381V6.96381C16.5379 7.17742 16.1052 7.23803 15.6979 7.13226C15.2905 7.02649 14.942 6.76304 14.7291 6.4C14.5921 6.16925 14.5186 5.90642 14.5158 5.6381V5.6381C14.5281 5.20791 14.3658 4.79103 14.0658 4.48244C13.7659 4.17385 13.3538 3.99982 12.9234 4H11.8796C11.4579 4 11.0537 4.16801 10.7563 4.46686C10.4589 4.76571 10.2928 5.17076 10.2948 5.59238V5.59238C10.2823 6.46289 9.57303 7.16199 8.70243 7.1619C8.43411 7.15912 8.17128 7.08553 7.94053 6.94857V6.94857C7.17876 6.51207 6.20741 6.77451 5.7691 7.53524L5.21291 8.44952C4.77513 9.2093 5.03399 10.18 5.79196 10.621V10.621C6.28465 10.9054 6.58816 11.4311 6.58816 12C6.58816 12.5689 6.28465 13.0946 5.79196 13.379V13.379C5.03495 13.817 4.77581 14.7854 5.21291 15.5429V15.5429L5.73862 16.4495C5.94399 16.8201 6.28856 17.0935 6.69608 17.2094C7.10361 17.3252 7.54049 17.2738 7.91005 17.0667V17.0667C8.27335 16.8547 8.70628 16.7966 9.11261 16.9053C9.51893 17.0141 9.86499 17.2806 10.0739 17.6457C10.2108 17.8765 10.2844 18.1393 10.2872 18.4076V18.4076C10.2872 19.2871 11.0001 20 11.8796 20H12.9234C13.7999 20 14.5116 19.2917 14.5158 18.4152V18.4152C14.5137 17.9923 14.6808 17.5861 14.9799 17.287C15.279 16.9879 15.6852 16.8208 16.1081 16.8229C16.3758 16.83 16.6376 16.9033 16.8701 17.0362V17.0362C17.6298 17.474 18.6006 17.2151 19.0415 16.4571V16.4571L19.5901 15.5429C19.8024 15.1784 19.8607 14.7443 19.752 14.3368C19.6433 13.9292 19.3766 13.5818 19.011 13.3714V13.3714C18.6454 13.1611 18.3787 12.8137 18.27 12.4061C18.1613 11.9985 18.2196 11.5645 18.432 11.2C18.57 10.9589 18.7699 10.759 19.011 10.621V10.621C19.7644 10.1803 20.0227 9.21521 19.5901 8.45714V8.45714V8.44952Z" stroke="#141736" stroke-width="1.5" stroke-linecap="round" stroke-linejoin="round"/>
</svg>
