<svg width="24" height="24" viewBox="0 0 24 24" fill="none" xmlns="http://www.w3.org/2000/svg">
<circle cx="12" cy="7" r="3" stroke="#141736" stroke-width="1.5" stroke-linecap="round"/>
<path d="M18 17C18 19.7614 14.7614 20 12 20C9.23858 20 6 19.7614 6 17C6 14.2386 9.23858 12 12 12C14.7614 12 18 14.2386 18 17Z" stroke="#141736" stroke-width="1.5" stroke-linecap="round"/>
<path d="M17.4033 10.3614C18.8838 10.3614 20.084 9.16123 20.084 7.68071C20.084 6.2002 18.8838 5 17.4033 5" stroke="#141736" stroke-width="1.5" stroke-linecap="round"/>
<path d="M21.4244 15.9999C21.4244 13.6337 19.6503 11.5538 17.4033 10.3613" stroke="#141736" stroke-width="1.5" stroke-linecap="round"/>
<path d="M6.021 10.3614C4.54048 10.3614 3.34028 9.16123 3.34028 7.68071C3.34028 6.2002 4.54048 5 6.021 5" stroke="#141736" stroke-width="1.5" stroke-linecap="round"/>
<path d="M1.99993 15.9999C1.99993 13.6337 3.77405 11.5538 6.021 10.3613" stroke="#141736" stroke-width="1.5" stroke-linecap="round"/>
</svg>
